<svg xmlns="http://www.w3.org/2000/svg" xmlns:xlink="http://www.w3.org/1999/xlink" width="500" zoomAndPan="magnify" viewBox="0 0 375 374.999991" height="500" preserveAspectRatio="xMidYMid meet" version="1.0"><path fill="#fefefe" d="M 132.144531 117.238281 L 134.007812 117.246094 C 138.53125 117.328125 142.4375 117.929688 146.550781 119.917969 L 148.269531 120.703125 C 150.152344 121.734375 150.980469 123.035156 152.210938 124.769531 L 153.828125 125.578125 C 155.191406 127.179688 156.539062 128.800781 157.871094 130.429688 L 159.488281 132.046875 L 161.105469 134.472656 L 161.105469 136.898438 L 162.625 137.050781 L 164.34375 137.707031 L 165 139.378906 C 165.984375 141.8125 166.984375 143.023438 168.738281 144.9375 C 171.070312 147.492188 172.585938 149.921875 174.046875 153.074219 L 175.664062 153.882812 L 176.285156 152.082031 C 177.347656 149.691406 178.527344 148.25 180.316406 146.351562 C 182.949219 143.5 185.355469 140.46875 187.535156 137.25 L 188.605469 136.089844 L 191.03125 136.089844 L 190.222656 133.664062 C 191.59375 131.679688 191.59375 131.679688 193.558594 129.417969 C 196.152344 126.539062 196.152344 126.539062 198.261719 123.316406 C 199.203125 121.597656 200.066406 120.40625 201.542969 119.109375 C 204.582031 118.273438 207.546875 118.382812 210.675781 118.453125 L 213.472656 118.445312 C 216.519531 118.445312 219.5625 118.484375 222.609375 118.527344 C 224.722656 118.535156 226.835938 118.539062 228.949219 118.542969 C 233.378906 118.558594 237.804688 118.589844 242.234375 118.636719 C 248.484375 118.703125 254.734375 118.730469 260.984375 118.753906 C 269.808594 118.785156 278.632812 118.835938 287.453125 118.925781 L 290.109375 118.945312 L 292.507812 118.972656 L 294.601562 118.992188 L 296.167969 119.109375 L 296.976562 119.917969 C 298.324219 119.867188 299.671875 119.796875 301.019531 119.714844 C 309.828125 119.640625 318.96875 122.710938 326.679688 126.882812 C 330.113281 128.976562 333.378906 131.265625 336.605469 133.664062 L 338.929688 135.382812 C 340.847656 137.074219 342.335938 138.914062 343.882812 140.945312 L 345.5 142.5625 C 347.875 145.972656 349.851562 149.136719 351.164062 153.074219 L 350.355469 154.691406 L 351.972656 155.5 L 351.164062 157.117188 L 352.78125 157.925781 C 353.707031 162.351562 353.6875 166.71875 353.640625 171.222656 L 353.628906 173.246094 C 353.617188 174.882812 353.605469 176.515625 353.589844 178.144531 L 351.972656 178.144531 L 352.78125 182.191406 L 351.164062 182.191406 L 351.660156 183.574219 C 351.972656 185.425781 351.972656 185.425781 351.398438 187.277344 L 350.503906 189.164062 L 349.628906 191.066406 C 348.738281 192.703125 348.738281 192.703125 347.121094 194.320312 L 346.816406 195.9375 L 346.3125 197.554688 C 345.246094 198.121094 344.167969 198.660156 343.074219 199.175781 L 342.265625 201.601562 L 340.648438 200.792969 L 341.457031 203.21875 C 339.03125 204.835938 339.03125 204.835938 337.414062 205.644531 L 336.351562 206.808594 C 334.988281 208.070312 334.988281 208.070312 333.015625 208.828125 C 330.847656 209.5625 330.847656 209.5625 329.378906 211.355469 L 327.710938 212.921875 C 326.09375 213.203125 324.476562 213.472656 322.855469 213.730469 C 320.890625 214.367188 318.933594 215.042969 316.992188 215.753906 L 314 216.839844 C 311.644531 217.683594 311.644531 217.683594 309.917969 218.582031 C 300.839844 219.976562 291.4375 219.496094 282.28125 219.472656 L 277.101562 219.46875 C 272.585938 219.464844 268.070312 219.457031 263.554688 219.449219 C 258.933594 219.441406 254.316406 219.433594 249.695312 219.433594 C 240.65625 219.421875 231.613281 219.410156 222.570312 219.394531 C 222.859375 220.953125 222.859375 220.953125 223.378906 222.628906 L 225 224.246094 L 227.425781 228.289062 L 229.042969 229.90625 C 230.632812 231.859375 231.910156 233.882812 233.136719 236.074219 C 234.523438 238.761719 234.523438 238.761719 236.320312 240.421875 L 237.433594 242.339844 C 238.664062 244.515625 238.664062 244.515625 240.464844 246.183594 C 241.980469 247.699219 241.980469 247.699219 242.789062 250.125 L 244.054688 251.390625 L 245.21875 252.550781 L 245.21875 254.167969 C 238.855469 254.28125 232.492188 254.367188 226.128906 254.417969 C 223.175781 254.445312 220.21875 254.480469 217.265625 254.535156 C 214.414062 254.585938 211.5625 254.617188 208.707031 254.628906 C 207.09375 254.644531 205.476562 254.679688 203.863281 254.71875 C 201.117188 254.71875 198.582031 254.675781 195.882812 254.167969 C 193.75 252.722656 193.132812 251.628906 191.839844 249.316406 L 190.496094 247.363281 L 189.363281 245.574219 C 188.078125 243.601562 186.941406 241.992188 185.269531 240.320312 C 183.609375 238.660156 182.648438 236.898438 181.535156 234.851562 C 179.785156 231.914062 177.699219 229.222656 175.671875 226.476562 C 174.273438 224.550781 172.921875 222.59375 171.621094 220.605469 C 168.234375 215.460938 164.550781 210.523438 160.871094 205.585938 C 159.988281 204.386719 159.988281 204.386719 159.085938 203.167969 L 157.441406 200.964844 L 156.253906 199.175781 L 156.253906 197.554688 L 154.941406 196.242188 C 146.480469 187.78125 138.820312 175.964844 133.609375 165.207031 C 130.71875 167.957031 128.402344 170.742188 126.179688 174.050781 C 125.554688 174.976562 124.929688 175.898438 124.304688 176.820312 L 123.320312 178.269531 C 122.238281 179.828125 121.136719 181.375 120.019531 182.910156 L 118.890625 184.464844 C 118.164062 185.460938 117.4375 186.457031 116.707031 187.453125 C 115.847656 188.648438 115.011719 189.859375 114.199219 191.085938 L 114.199219 192.703125 L 110.15625 196.746094 L 110.15625 198.363281 L 108.539062 199.984375 C 105.433594 203.976562 102.550781 208.125 99.792969 212.367188 C 98.121094 214.890625 96.316406 217.316406 94.386719 219.644531 C 90.167969 224.828125 86.421875 230.335938 82.621094 235.824219 L 81.082031 237.902344 C 79.738281 239.945312 78.78125 241.773438 77.78125 243.980469 C 76.109375 247.339844 74.351562 250.265625 71.667969 252.910156 C 68.371094 255.039062 65.078125 255.222656 61.226562 255.46875 C 56.203125 255.582031 51.199219 255.382812 46.183594 255.113281 C 43.273438 254.972656 40.359375 254.910156 37.449219 254.839844 C 31.757812 254.6875 26.070312 254.464844 20.382812 254.167969 C 21.757812 251.335938 23.148438 248.660156 24.972656 246.089844 L 26.1875 244.371094 L 27.460938 242.59375 L 28.773438 240.75 C 31.441406 237 34.207031 233.320312 37.066406 229.714844 C 38.636719 227.699219 40.007812 225.566406 41.410156 223.4375 C 42.484375 221.949219 43.5625 220.46875 44.648438 218.988281 C 46.878906 215.941406 49.035156 212.839844 51.117188 209.6875 C 53.492188 206.265625 55.890625 202.859375 58.289062 199.453125 L 59.761719 197.355469 L 61.171875 195.351562 C 62.25 193.785156 63.261719 192.199219 64.257812 190.582031 L 65.675781 188.660156 L 68.101562 188.660156 L 67.292969 186.234375 C 68.191406 185.113281 69.101562 184 70.058594 182.929688 C 71.546875 181.125 72.738281 179.226562 73.964844 177.238281 C 76.597656 173.019531 79.5 169.078125 82.507812 165.121094 C 84.550781 162.417969 86.488281 159.652344 88.421875 156.867188 C 93.203125 150.003906 98.09375 143.203125 103.046875 136.457031 C 103.945312 135.230469 104.824219 133.992188 105.6875 132.742188 C 108.949219 128.113281 112.867188 124.082031 117.433594 120.726562 C 119.035156 120.132812 120.652344 119.59375 122.285156 119.109375 L 123.792969 118.214844 C 126.5 117.082031 129.253906 117.21875 132.144531 117.238281 M 289.777344 154.722656 L 286.753906 154.742188 L 270.460938 154.855469 L 260.550781 154.925781 L 220.421875 155.199219 L 176.472656 155.5 C 176.96875 157.898438 177.488281 159.042969 178.898438 161.164062 L 180.515625 161.164062 L 180.796875 162.601562 C 181.367188 164.539062 182.121094 165.6875 183.347656 167.277344 C 184.75 169.113281 185.429688 170.242188 186.179688 172.484375 C 187.125 173.40625 188.078125 174.324219 189.035156 175.238281 C 190.980469 177.355469 192.453125 179.777344 193.996094 182.199219 C 195.058594 183.898438 195.058594 183.898438 196.691406 185.425781 C 198.574219 185.675781 198.574219 185.675781 200.789062 185.640625 L 203.417969 185.660156 L 206.3125 185.660156 L 209.355469 185.675781 C 212.113281 185.6875 214.871094 185.695312 217.625 185.695312 C 219.925781 185.695312 222.226562 185.703125 224.53125 185.707031 C 229.960938 185.722656 235.390625 185.726562 240.820312 185.726562 C 246.421875 185.722656 252.023438 185.742188 257.625 185.765625 C 262.429688 185.785156 267.238281 185.796875 272.046875 185.796875 C 274.917969 185.796875 277.789062 185.800781 280.660156 185.816406 C 283.867188 185.835938 287.070312 185.828125 290.277344 185.816406 L 293.15625 185.84375 C 295.550781 185.828125 297.839844 185.773438 300.210938 185.425781 C 302.6875 184.042969 302.6875 184.042969 304.253906 182.191406 L 306.933594 180.472656 L 309.109375 178.957031 L 309.109375 177.335938 L 310.726562 176.527344 C 311.511719 172.9375 311.847656 168.863281 311.535156 165.207031 C 310.460938 162.519531 309.066406 160.984375 306.835938 159.152344 C 304.9375 157.839844 303.117188 157.003906 300.96875 156.15625 L 298.871094 155.316406 C 295.925781 154.347656 292.859375 154.703125 289.777344 154.722656 " fill-opacity="1" fill-rule="nonzero"/></svg>